<svg width="220" height="260" viewBox="0 0 220 260" xmlns="http://www.w3.org/2000/svg">
  <defs>
    <linearGradient id="shirt" x1="0" y1="0" x2="0" y2="1">
      <stop offset="0%" stop-color="#f7f7f7"/>
      <stop offset="100%" stop-color="#d7dbe1"/>
    </linearGradient>
  </defs>

  <!-- arms open -->
  <g fill="#f3d6cc" stroke="#3e2e2c" stroke-width="5" stroke-linecap="round" stroke-linejoin="round">
    <path d="M46 148 C18 138, 10 120, 18 108 C28 94, 54 108, 68 122 C78 132, 70 150, 46 148Z"/>
    <path d="M174 148 C202 138, 210 120, 202 108 C192 94, 166 108, 152 122 C142 132, 150 150, 174 148Z"/>
  </g>

  <!-- body -->
  <path d="M78 165 C78 146, 86 132, 110 132 C134 132, 142 146, 142 165 L142 228 C142 236, 136 242, 128 242 L92 242 C84 242, 78 236, 78 228Z"
        fill="url(#shirt)" stroke="#3e2e2c" stroke-width="5"/>

  <!-- neck -->
  <rect x="100" y="122" width="20" height="16" rx="8" fill="#f3d6cc" stroke="#3e2e2c" stroke-width="4"/>

  <!-- ears -->
  <ellipse cx="66" cy="100" rx="12" ry="16" fill="#f3d6cc" stroke="#3e2e2c" stroke-width="5"/>
  <ellipse cx="154" cy="100" rx="12" ry="16" fill="#f3d6cc" stroke="#3e2e2c" stroke-width="5"/>

  <!-- face -->
  <ellipse cx="110" cy="98" rx="48" ry="52" fill="#f3d6cc" stroke="#3e2e2c" stroke-width="5"/>

  <!-- cap -->
  <path d="M56 78 C58 42, 82 22, 110 22 C138 22, 162 42, 164 78 L164 92 C134 86, 86 86, 56 92Z"
        fill="#4e95d0" stroke="#3e2e2c" stroke-width="5"/>
  <path d="M94 38 C106 58, 122 56, 132 40 C128 68, 112 78, 92 70 C86 62, 88 48, 94 38Z" fill="#5a4338" stroke="#3e2e2c" stroke-width="4"/>
  <text x="78" y="88" font-size="28" font-family="Arial" font-weight="700" fill="#eaf4ff" text-anchor="middle">w</text>

  <!-- eyes -->
  <ellipse cx="90" cy="102" rx="16" ry="18" fill="#ffffff" stroke="#3e2e2c" stroke-width="4"/>
  <ellipse cx="130" cy="102" rx="16" ry="18" fill="#ffffff" stroke="#3e2e2c" stroke-width="4"/>
  <circle cx="90" cy="106" r="6" fill="#2b2b2b"/>
  <circle cx="130" cy="106" r="6" fill="#2b2b2b"/>

  <!-- brows -->
  <path d="M74 80 C82 70, 98 70, 106 80" stroke="#5a4338" stroke-width="6" fill="none" stroke-linecap="round"/>
  <path d="M114 80 C122 70, 138 70, 146 80" stroke="#5a4338" stroke-width="6" fill="none" stroke-linecap="round"/>

  <!-- nose -->
  <path d="M108 114 C104 122, 108 126, 114 126" stroke="#c58f82" stroke-width="4" fill="none" stroke-linecap="round"/>

  <!-- smile -->
  <path d="M92 136 C104 146, 116 146, 128 136" stroke="#3e2e2c" stroke-width="5" fill="#ffffff"/>

  <!-- logo text -->
  <circle cx="110" cy="196" r="8" fill="#e72b43"/>
  <text x="110" y="220" font-size="22" font-family="Arial" font-weight="700" fill="#345f9e" text-anchor="middle">WIZKIDS!</text>
</svg>
