<svg width="1280" height="720" viewBox="0 0 1280 720" xmlns="http://www.w3.org/2000/svg">
  <defs>
    <linearGradient id="sky" x1="0" y1="0" x2="0" y2="1">
      <stop offset="0%" stop-color="#70c9ec"/>
      <stop offset="100%" stop-color="#5ec0df"/>
    </linearGradient>
    <linearGradient id="grass" x1="0" y1="0" x2="0" y2="1">
      <stop offset="0%" stop-color="#68bd2b"/>
      <stop offset="100%" stop-color="#479f1d"/>
    </linearGradient>
  </defs>
  <rect width="1280" height="300" fill="url(#sky)"/>
  <rect x="0" y="170" width="260" height="70" fill="#d83b3b"/>
  <rect x="260" y="170" width="760" height="70" fill="#3c93b3"/>
  <rect x="1020" y="170" width="260" height="70" fill="#efcb29"/>
  <rect x="0" y="240" width="1280" height="60" fill="#a5d66d"/>

  <rect x="0" y="300" width="1280" height="420" fill="url(#grass)"/>

  <rect x="300" y="120" width="680" height="210" fill="#79c6d8" opacity="0.35" stroke="#fff" stroke-width="10"/>
  <g stroke="#eaf7ff" stroke-width="2">
    <line x1="328" y1="120" x2="328" y2="330"/><line x1="356" y1="120" x2="356" y2="330"/><line x1="384" y1="120" x2="384" y2="330"/>
    <line x1="412" y1="120" x2="412" y2="330"/><line x1="440" y1="120" x2="440" y2="330"/><line x1="468" y1="120" x2="468" y2="330"/>
    <line x1="496" y1="120" x2="496" y2="330"/><line x1="524" y1="120" x2="524" y2="330"/><line x1="552" y1="120" x2="552" y2="330"/>
    <line x1="580" y1="120" x2="580" y2="330"/><line x1="608" y1="120" x2="608" y2="330"/><line x1="636" y1="120" x2="636" y2="330"/>
    <line x1="664" y1="120" x2="664" y2="330"/><line x1="692" y1="120" x2="692" y2="330"/><line x1="720" y1="120" x2="720" y2="330"/>
    <line x1="748" y1="120" x2="748" y2="330"/><line x1="776" y1="120" x2="776" y2="330"/><line x1="804" y1="120" x2="804" y2="330"/>
    <line x1="832" y1="120" x2="832" y2="330"/><line x1="860" y1="120" x2="860" y2="330"/><line x1="888" y1="120" x2="888" y2="330"/>
    <line x1="916" y1="120" x2="916" y2="330"/><line x1="944" y1="120" x2="944" y2="330"/>
    <line x1="300" y1="138" x2="980" y2="138"/><line x1="300" y1="156" x2="980" y2="156"/><line x1="300" y1="174" x2="980" y2="174"/>
    <line x1="300" y1="192" x2="980" y2="192"/><line x1="300" y1="210" x2="980" y2="210"/><line x1="300" y1="228" x2="980" y2="228"/>
    <line x1="300" y1="246" x2="980" y2="246"/><line x1="300" y1="264" x2="980" y2="264"/><line x1="300" y1="282" x2="980" y2="282"/>
    <line x1="300" y1="300" x2="980" y2="300"/>
  </g>

  <g stroke="#fff" stroke-width="7" fill="none">
    <polyline points="120,430 1160,430"/>
    <polyline points="120,430 45,605 1235,605 1160,430"/>
  </g>

  <g transform="translate(640 285)">
    <circle cx="0" cy="-58" r="22" fill="#f8c49a" stroke="#7d5739" stroke-width="2"/>
    <rect x="-30" y="-30" width="60" height="76" fill="#cfcfcf" stroke="#888" stroke-width="2"/>
    <line x1="-30" y1="-8" x2="-84" y2="6" stroke="#cfcfcf" stroke-width="10"/>
    <line x1="30" y1="-8" x2="84" y2="6" stroke="#cfcfcf" stroke-width="10"/>
    <line x1="-12" y1="46" x2="-18" y2="82" stroke="#8f8f8f" stroke-width="9"/>
    <line x1="12" y1="46" x2="18" y2="82" stroke="#8f8f8f" stroke-width="9"/>
  </g>

  <g transform="translate(510 578)">
    <circle cx="0" cy="-122" r="26" fill="#6a4723"/>
    <rect x="-30" y="-94" width="60" height="86" fill="#f0d92e" stroke="#2a6e2f" stroke-width="2"/>
    <text x="-12" y="-52" font-family="Arial" font-size="44" fill="#1f9e45" font-weight="700">10</text>
    <rect x="-26" y="-8" width="52" height="78" fill="#1450b8"/>
    <rect x="-24" y="70" width="14" height="64" fill="#fff"/>
    <rect x="10" y="70" width="14" height="64" fill="#fff"/>
  </g>

  <g>
    <circle cx="616" cy="595" r="34" fill="#fff" stroke="#263238" stroke-width="4"/>
  </g>

  <g opacity="0.9">
    <rect x="76" y="552" width="112" height="68" fill="#1f9e55"/>
    <rect x="1086" y="552" width="112" height="68" fill="#ce2a2a"/>
    <text x="86" y="670" font-family="Arial" font-size="48" fill="#fff" font-weight="700">Brazil</text>
    <text x="1040" y="670" font-family="Arial" font-size="48" fill="#fff" font-weight="700">Portugal</text>
  </g>
</svg>
